<?xml version="1.0" encoding="UTF-8"?><svg id="Layer_1" xmlns="http://www.w3.org/2000/svg" viewBox="0 0 1080 1080"><g><path d="M305.44,629.27H141.2l1.38-3.75h164.24l-1.38,3.75Zm-161.67-6.72l3.75-9.49h164.04l-3.75,9.49H143.77Zm5.14-13.04l3.36-8.89h164.04l-3.36,8.89H148.91Zm4.94-13.24l3.16-8.1h53.36l-3.16,8.1h-53.36Zm59.29-15.02l-.79,1.98h-53.56l2.96-7.51h164.83l-2.17,5.53h-111.27Zm-49.21-11.27l2.57-6.72h164.83l-2.57,6.72H163.93Zm191.12-68.38l-1.19,2.77H169.86l-2.17-2.77h187.36Zm-186.18,55.34l2.37-6.13h164.83l-2.37,6.13H168.87Zm11.66-39.53l-3.16-3.75h172.93l-1.38,3.75H180.53Zm-1.38,13.24l1.78-4.74h164.83l-1.78,4.74H179.14Zm105.94,13.04l1.98-5.34h53.96l-2.17,5.34h-53.76Z" style="fill:aqua;"/><path d="M501.49,629.27h-164.44l1.38-3.75h164.44l-1.38,3.75Zm-161.87-6.72l3.56-9.49h164.63l-3.75,9.49h-164.44Zm4.94-13.04l3.36-8.89h164.63l-3.36,8.89h-164.63Zm5.14-13.24l2.96-8.1h53.56l-3.16,8.1h-53.36Zm4.94-13.04l2.77-7.51h53.56l-2.77,7.51h-53.56Zm4.94-13.24l2.57-6.72h53.56l-2.57,6.72h-53.56Zm3.75-68.38h187.17l-1.19,2.77h-183.81l-2.17-2.77Zm1.38,55.34l2.37-6.13h53.56l-2.37,6.13h-53.56Zm5.14-13.24l1.98-5.34h53.56l-1.98,5.34h-53.56Zm6.32-26.29l-3.16-3.75h172.74l-1.38,3.75h-168.19Zm-1.38,13.24l1.78-4.74h164.63l-1.78,4.74h-164.63Zm85.58,65.62l3.16-8.1h53.76l-3.16,8.1h-53.76Zm5.14-13.04l2.77-7.51h53.76l-2.96,7.51h-53.56Zm4.94-13.24l2.57-6.72h53.76l-2.57,6.72h-53.76Zm5.14-13.04l2.37-6.13h53.56l-2.37,6.13h-53.56Zm5.14-13.24l1.98-5.34h53.76l-2.17,5.34h-53.56Z" style="fill:aqua;"/><path d="M696.96,629.27h-164.24l1.38-3.75h164.24l-1.38,3.75Zm-161.67-6.72l3.75-9.49h164.04l-3.75,9.49h-164.04Zm5.14-13.04l3.36-8.89h164.04l-3.36,8.89h-164.04Zm4.94-13.24l3.16-8.1h53.36l-3.16,8.1h-53.36Zm59.29-15.02l-.79,1.98h-53.56l2.96-7.51h164.83l-2.17,5.53h-111.27Zm-49.21-11.27l2.57-6.72h164.83l-2.57,6.72h-164.83Zm191.12-68.38l-1.19,2.77h-184l-2.17-2.77h187.36Zm-186.18,55.34l2.37-6.13h164.83l-2.37,6.13h-164.83Zm11.66-39.53l-3.16-3.75h172.93l-1.38,3.75h-168.39Zm-1.38,13.24l1.78-4.74h164.83l-1.78,4.74h-164.83Zm105.94,13.04l1.98-5.34h53.96l-2.17,5.34h-53.76Z" style="fill:aqua;"/><path d="M893.22,629.27h-164.83l1.38-3.75h164.83l-1.38,3.75Zm-162.46-6.72l3.76-9.49h165.03l-3.75,9.49h-165.03Zm5.14-13.04l3.36-8.89h165.03l-3.36,8.89h-165.03Zm121.94-28.26h-111.07l2.17-5.53h164.83l-2.96,7.51h-53.76l.79-1.98Zm-106.73-11.27l2.57-6.72h164.83l-2.57,6.72h-164.83Zm191.12-68.38l-1.19,2.77h-184l-2.17-2.77h187.36Zm-186.18,55.34l2.37-6.13h164.83l-2.37,6.13h-164.83Zm11.07-39.53l-2.96-3.75h173.33l-1.38,3.75h-168.98Zm10.28,13.24l-3.76-4.74h159.3l-1.78,4.74h-153.76Zm74.51,65.62l3.16-8.1h53.96l-3.16,8.1h-53.96Zm20.36-52.57l1.98-5.34h53.96l-2.17,5.34h-53.76Z" style="fill:aqua;"/></g><g><path d="M273.11,478.99c.6,0,1.5,.15,1.95,.15,1.5,0,3.29-1.35,5.39-3.89,2.1-2.55,3.14-4.49,3.14-5.84v-.9c-.3-1.65-1.2-2.55-2.7-2.55-.75,0-1.5,.15-2.1,.15l-.3,.15c-.45,0-1.8-.9-4.19-2.85-2.25-1.8-3.74-2.7-4.64-2.7-.3,0-1.05,.15-2.25,.6-1.5,.6-8.99,1.2-22.46,1.8-13.63,.6-25.01,.9-34.29,.9-6.44,0-9.58-.15-9.58-.6,0-.15,10.93-6.14,32.8-17.97,20.82-10.93,31.75-17.07,32.95-18.27,.75-.6,1.8-.9,3.14-.9,1.05,0,1.8,0,2.4,.15,.75,.15,1.5,.15,2.55,.15,1.95,0,4.49-.75,7.34-2.25l5.99-2.85c.15,0,1.05-.3,2.85-.9l2.4-.9-2.1-2.4c-1.05-1.05-3.29-2.7-6.44-4.64-3.14-1.95-5.09-2.85-5.84-2.85-1.05,0-3,1.8-5.84,1.8-1.5,0-4.94,1.5-10.48,4.64-4.94,2.85-22.16,11.38-51.67,25.46-29.2,14.08-44.03,21.27-44.63,21.71-.75,.6-1.05,1.05-1.05,1.5,0,.75,1.35,1.95,4.04,3.59,2.25,1.35,3.29,2.1,3.29,2.55,0,.15-.15,.15-.3,.15-1.05,0-2.85-.6-5.39-1.95l-4.64-2.55-8.99,3.44c-4.64,1.8-7.79,2.7-9.14,2.7-.75,0-1.35-.15-1.8-.45-.75-.45-1.8-.6-2.85-.6-2.25,0-3.44,.6-3.44,1.8,0,.6,1.65,1.8,5.09,3.44,3.44,1.65,5.69,2.55,7.04,2.55,1.05,0,1.5,.3,1.5,.9,0,.45,1.95,1.35,5.84,2.7,3,1.05,5.09,1.5,6.14,1.5,.75,0,1.2-.15,1.65-.45,.9-.45,16.92-1.5,48.22-3,31.15-1.5,50.92-2.25,59.3-2.25h2.1Zm-92.7,1.2c-1.2,0-5.99,.15-7.94,.15s-6.59-.15-7.94-.15c-.75,0-1.35,0-1.8-.15h19.62l-1.95,.15Zm33.55-13.63c-.45,.45-.9,.45-1.65,.15-.75-.45-.45-.6,.6-.6h.75c.45,0,.45,.15,.3,.45Z" style="fill:#fe3289;"/><path d="M346.51,445.7c.23-.69-2.76-1.15-9.42-1.15-4.82,0-7.81,.23-9.42,.69-1.61,.46-4.13,1.84-7.12,4.36-8.73,6.89-13.09,11.02-13.09,12.17,0,.46,.23,.69,.46,.92,1.15,.69,1.38,1.61,.23,2.76-.92,.92-1.61,1.38-2.3,1.38-1.15,0-1.61-2.07-1.61-6.43,0-2.99,0-5.51,.23-7.58,.23-4.36,.46-6.89,.46-7.81,0-5.74-1.84-5.51-9.19-.92-2.99,1.84-4.82,3.22-5.28,4.13-.69,1.15-.92,3.67-.92,7.58,0,7.12,.69,8.73,4.59,13.09,2.53,2.99,4.59,4.36,6.66,4.36h.92l.69-.23c1.61-.23,2.07,.46,1.38,1.61-.23,.69-11.48,14.24-33.3,41.11-21.59,26.41-32.38,39.96-32.38,40.88-.23,1.15,0,1.61,.69,1.61,1.38,0,4.59-3.22,9.88-9.42,6.66-8.27,10.11-10.79,19.06-15.16l10.56-5.28,33.99-40.65c22.51-27.33,33.99-41.34,34.22-42.03Z" style="fill:#fe3289;"/><path d="M439.97,454.95c1.19-5.24,1.67-8.09,1.67-8.57l.95-5.95h-6.19c-4.52,0-7.38,.48-8.57,1.19-1.43,.71-10.95,1.43-28.79,2.14-18.32,.71-30.22,1.19-35.69,1.67l-9.04,.95-7.85,14.99c-5.47,9.99-8.57,14.99-9.52,14.99-.71,0-.95,.71-.95,1.9,0,1.9-11.18,2.62-11.66,3.09-.24,.24,.95,1.9,3.81,4.76l4.28,4.05-16.18,33.79c-10.71,22.13-15.94,33.55-15.94,34.27,0,.24,.24,.48,.71,.48,1.67,0,5.24-4.05,7.38-9.52,2.86-7.38,4.05-8.57,12.37-13.33,4.52-2.62,7.38-4.76,8.8-6.42,1.43-1.9,4.05-6.66,7.61-14.04,5-11.18,7.85-17.37,8.09-18.56,1.19-5,1.9-4.76,3.81-7.14,1.67-2.38,3.33-4.05,5.47-4.76,47.83-14.75,86.38-28.56,85.43-29.98Zm-99.47,24.03c-.71,.24-1.19,.24-1.67-.24,0-.48,.48-.71,1.19-.95,.71,.24,.95,.71,.48,1.19Zm45.69-15.94c-15.23,4.76-23.32,7.14-24.27,7.14-.48-.71,.24-2.86,2.14-6.42l3.09-5.47,17.61-1.43c7.85-.71,16.9-1.43,19.99-1.67,3.09-.24,4.28-.24,4.28,0,0,.71-7.61,3.33-22.84,7.85Z" style="fill:#fe3289;"/><path d="M494.94,449.08c2.22-1.71,3.25-3.59,3.25-5.47,0-1.37-.51-2.56-1.54-3.59l-2.05-2.22,5.47-23.24c3.76-15.38,5.64-23.76,5.64-25.12,0-.85-.34-1.37-.85-1.37-1.2,0-2.39,1.2-3.25,3.42-.85,2.39-2.22,4.61-3.93,6.49-1.54,1.88-3.93,8.72-7.01,20.68l-4.79,18.46-10.6,.34h-3.08c-4.96,0-7.52-.17-7.52-.51,0-.51,1.2-6.49,3.76-17.95,2.39-10.94,3.59-18.29,3.59-22.05,0-3.25-.51-4.79-1.37-4.79-.34,0-.68,0-1.03,.17-2.56,.68-4.61,1.2-6.49,1.37-3.59,.68-4.27,1.37-5.47,4.96-.68,2.22-1.2,5.3-1.37,9.4,0,3.59-.51,7.35-1.54,11.45-.85,3.93-1.37,6.49-1.37,7.52,0,2.22,1.03,2.05,3.25,2.39l3.42,.17-3.76,.68c-2.39,.34-3.59,1.03-3.59,2.22,0,.85-.17,1.54-.68,2.05-.34,.17-2.39,9.57-6.32,28.03-3.93,18.63-5.98,28.37-5.98,29.57,0,.51,.17,.68,.34,.68,1.2,0,3.93-4.44,4.79-7.86,.85-3.08,2.56-5.3,5.47-6.67,2.39-1.37,3.93-2.73,4.44-3.93,.51-1.54,2.56-9.06,6.15-22.39l1.88-5.98h9.23c6.32,0,9.4,.34,9.4,.85,0,.85-.85,5.47-2.73,13.84-2.22,10.43-3.42,16.41-3.42,17.95,0,.68,.17,1.54,.68,2.39,1.2,2.22,4.96,4.79,7.01,4.79,.51,0,.85-.17,1.03-.51,0-.34,2.22-8.89,4.61-17.95,2.91-11.11,4.96-17.09,6.32-18.29Zm-39.14-10.43c0-.51,.68-.85,2.05-1.03,1.88,0,2.73,.17,2.73,.51,0,.85-4.1,1.37-4.79,.51Z" style="fill:#fe3289;"/><path d="M546.15,466.52c-.71,0-5.26,.71-13.55,2.02-11.22,1.82-17.29,2.73-18.2,2.73-.3,0-.51-.1-.51-.2,0-.51,.51-1.62,1.52-3.44,.81-1.52,1.42-2.43,1.92-2.73,.91-.51,4.35-1.21,10.41-1.92,9.61-1.21,15.17-2.02,16.58-2.33,1.31-.3,2.43-1.11,3.24-2.43,1.11-1.82,1.62-2.83,1.62-3.03,0-.91-1.62-1.11-8.09-1.11h-18l1.01-1.82,.91-1.82h6.37c5.56,0,6.37-.2,7.48-1.31,.51-.51,1.31-.91,2.43-1.01,1.11-.1,3.74-.2,7.99-.2h9.3c1.31-2.22,2.63-4.25,3.94-5.97l-9.4-.4c-4.55-.2-11.83-.4-22.04-.71l-12.64-.4-6.67,9.4c-4.15,5.86-6.27,9.1-6.27,9.61,0,.2,1.52,.3,4.65,.3h4.35c2.33,0,3.84,.3,4.35,.81,.2,.2,.3,.4,.3,.51,0,.3-.81,.4-2.53,.4h-2.43c-1.11,0-3.74-.1-4.65-.1-1.11,0-3.03,.1-3.44,.1h-2.53l-5.66,7.99c-3.74,5.36-5.56,8.19-5.56,8.59,0,.3,1.21,1.52,3.64,3.64,2.43,2.12,3.74,3.24,4.04,3.24,.1,0,7.28-1.52,21.54-4.65,14.26-3.13,21.44-4.65,21.64-4.65,.3,0,1.01-1.21,2.22-3.74,1.11-2.53,1.72-4.04,1.72-4.55s-.1-.81-1.01-.81Zm-22.65-9.2c.81-1.92,1.42,.51,.2,.51-.3,0-.3-.2-.2-.51Zm-14.56,.51c-.81,0-.81-1.21,0-1.21,.91,0,.91,1.21,0,1.21Zm7.79-1.42h-1.42c-.61-.1-.51-.2,.4-.51,1.21-.3,2.43-.4,3.74-.4h.91c.71,0,.71,.1,0,.4-.81,.3-2.02,.51-3.64,.51Zm-9,17.49h-2.63c-1.82,0-2.73-.1-2.73-.3,0-.1,.1-.2,.2-.3,.51-.51,3.24-.91,8.39-1.21,1.11-.1,1.72,0,2.02,.4,0,.1,.1,.1,.1,.2,0,.61-1.82,1.01-5.36,1.21Zm10.82-.71c-3.74,0-3.74-1.21,0-1.21s3.64,1.21,0,1.21Zm5.56-.91c-.3,.3-.61,.4-1.11,.1-.51-.3-.3-.4,.4-.4h.51c.3,0,.4,.1,.2,.3Z" style="fill:#fe3289;"/><path d="M633.88,485.37l-17.39-6.83c-11.54-4.39-17.23-6.83-17.23-7.15,0-.49,7.15-3.09,21.62-7.8l21.62-7.48c0-.33-.98-1.95-2.93-4.88-2.11-3.09-3.9-4.55-5.69-4.55-8.29,0-27.3-1.14-57.05-3.58l-7.15-.65-1.95,4.39c-4.23,9.75-10.24,22.75-18.04,39.17-2.76,6.18-4.23,10.08-4.23,11.86,0,.98,1.14,2.93,3.41,5.69,2.28,2.76,3.74,4.06,4.23,4.06h.16l3.9-7.64c2.76-5.04,5.36-10.24,8.13-15.28,2.6-5.04,4.06-7.48,4.23-7.48,.81,0,2.93,.98,6.66,2.93,4.23,2.11,8.94,4.06,13.98,6.01,5.04,1.95,7.96,2.93,9.1,2.93,1.3,0,2.11,.33,2.44,.98,.33,.81,.98,.81,1.79,0,.65-.65,3.41-.98,8.45-.98,4.55,0,6.83,.16,6.83,.33,0,.65-3.58,1.14-10.73,1.63-1.14,0-1.79,.16-1.79,.33,0,.65,2.93,1.79,8.61,3.58l7.31,2.11,11.7-11.7Zm-38.03-26c-9.26,2.6-15.28,3.9-17.72,3.9h-.33c-2.11-.49-2.6-.65-2.6-2.6v-.98c.16-2.76,.81-4.39,2.11-5.04s4.88-.98,10.56-.98h4.88c9.59,0,15.11,.33,16.74,.81q.16,0,.16,.16c0,.65-4.55,2.28-13.81,4.71Zm11.21,25.68c-.33-.16-.49-.33-.49-.81,.32-.81,.65-1.14,1.14-1.14s.65,1.95-.65,1.95Z" style="fill:#fe3289;"/><path d="M793.63,447.5c0-.12-.12-.49-.12-.62-.49-1.85-.74-3.58-.74-5.31,0-2.59,.49-4.82,1.61-6.67,1.11-2.1,1.73-3.34,1.73-3.46,0-.25-.37-.37-.99-.37s-4.57,5.68-11.61,17.17l-10.62,17.05-9.51,5.81c-6.55,3.83-9.76,5.56-9.76,4.94,0-.37,.74-2.22,2.1-5.56,1.48-3.21,2.22-5.81,2.22-7.91,0-1.61-.49-2.35-1.48-2.35-.86,0-2.59,.62-5.06,1.85-1.85,.99-3.09,1.98-3.71,3.09-.74,1.11-2.22,4.08-4.32,8.89-2.72,6.67-4.08,10.13-4.08,10.5l.49,.37c.86,.49,2.59,1.61,3.71,2.47l3.95,2.84,8.4-5.93c5.56-3.83,8.4-5.81,8.65-5.81,.12,0-.86,2.72-1.48,5.19l-.62,1.73c0,.37,2.84,1.98,8.4,4.57,.37,.12,1.11-.86,2.1-2.96,0-.12,3.83-6.92,11.36-20.63,6.3-11.24,9.39-17.54,9.39-18.9Z" style="fill:#fe3289;"/><path d="M843.9,441.57h-6.18l-7.41,13.22c-4.57,8.03-6.92,12.6-6.92,13.46,.12,.37,.86,.12,1.98-.99,1.61-1.48,1.73-1.36,.74,.25s-4.69,2.47-11.12,2.47h-4.82l.37,2.47c.49,2.72,.86,4.82,.99,6.18,.25,2.22,.99,4.57,2.35,6.92,.99,1.61,1.73,2.47,2.22,2.84,.49,.25,1.85,.37,3.95,.37,2.84,0,4.69-.37,5.31-.99,.86-.99,5.19-8.65,13.09-23.22,7.91-14.45,11.86-21.86,11.86-22.48,0-.37-2.1-.49-6.42-.49Z" style="fill:#fe3289;"/><path d="M804.01,469.98c-.86,0-1.61,0-2.22-.12s-.86-.37-.74-.62c.25-.49,3.71-.74,10.5-.74,8.65,0,10.13-.25,10.13-1.24,0-.62-2.22-8.52-6.55-23.59-.37-.86-1.11-1.36-2.35-1.48-1.61-.37-1.98-.49-1.98-1.61,0-.12,.12-.74,.12-1.11,.12-1.61,.12-2.47-.12-2.47-.12,0-1.61,2.47-4.32,7.29-.62,1.11-1.98,3.58-4.08,7.41-2.1,3.83-3.71,6.55-4.57,8.15l-4.57,8.28,2.72,.49c1.98,.37,3.09,.37,3.46,.12,.37-.12,.49,0,.49,.37,0,.62-1.36,.86-3.95,.86-3.95,0-4.2,.12-5.31,2.59l-1.24,2.72h2.1c.74,.12,1.11,.12,1.24,.12l-1.48,.49-.25,.12h-.12c-2.35,.62-3.09,1.48-5.19,5.44-1.36,2.35-2.1,4.32-2.1,5.68,0,.74,.62,1.11,1.98,1.11,1.61,0,4.32-.49,8.28-1.36l4.08-.86,4.69-7.54c3.09-4.94,4.69-7.66,4.69-8.03s-1.11-.49-3.34-.49Z" style="fill:#fe3289;"/><path d="M974.11,524.28c-.59-2.35-2.15-4.11-4.89-5.28-2.93-1.17-5.08-1.76-6.65-1.76-1.17,0-10.36-4.5-27.38-13.69-17.4-9.19-26.2-13.69-26.79-13.69-.78,0-1.17-1.56-1.17-4.69,0-3.91-.39-5.28-2.93-6.26-3.52-1.56-4.11-2.74-1.56-3.52,.59-.2,.98-.59,.98-.78,0-.98-3.13-3.52-9.58-7.24-5.48-3.32-8.21-5.08-8.21-5.28,0-.39,5.28-3.32,15.84-9,10.76-5.67,16.23-9,16.62-9.58,.59-.78,4.11-2.74,10.56-5.87,6.06-3.13,11.54-7.04,16.43-11.93,4.5-4.5,6.65-7.04,6.65-7.82,0-.2-.2-.2-.39-.2h-.2c-.59,0-13.49,6.26-38.72,18.58-24.05,11.93-36.76,17.79-38.33,17.79-.59,0,1.37-3.91,3.13-7.04,1.76-2.93,2.54-5.28,2.54-7.04,0-.98-2.15-1.56-6.26-1.56h-2.15l-7.43,.2-9.78,17.99c-6.06,10.75-9,17.4-9,19.55,0,.59,.2,1.17,.39,1.96,.39,.98,.59,1.96,.59,2.93,0,1.37-.39,2.93-1.17,5.08l-1.96,4.89c1.37,.98,3.72,2.54,6.84,4.69l7.24-12.32c4.89-8.41,7.82-12.51,8.8-12.51,.59,0,18.58,9.58,53.97,28.75,35.39,19.16,53.58,28.75,54.36,28.75v-.59c0-.78-.2-2.15-.39-3.52Z" style="fill:#fe3289;"/><path d="M755.71,454.95c1.19-5.24,1.67-8.09,1.67-8.57l.95-5.95h-6.19c-4.52,0-7.38,.48-8.57,1.19-1.43,.71-10.95,1.43-28.79,2.14-18.32,.71-30.22,1.19-35.69,1.67l-9.04,.95-7.85,14.99c-5.47,9.99-8.57,14.99-9.52,14.99-.71,0-.95,.71-.95,1.9,0,1.9-11.18,2.62-11.66,3.09-.24,.24,.95,1.9,3.81,4.76l4.28,4.05-16.18,33.79c-10.71,22.13-15.94,33.55-15.94,34.27,0,.24,.24,.48,.71,.48,1.67,0,5.24-4.05,7.38-9.52,2.86-7.38,4.05-8.57,12.37-13.33,4.52-2.62,7.38-4.76,8.8-6.42,1.43-1.9,4.05-6.66,7.61-14.04,5-11.18,7.85-17.37,8.09-18.56,1.19-5,1.9-4.76,3.81-7.14,1.67-2.38,3.33-4.05,5.47-4.76,47.83-14.75,86.38-28.56,85.43-29.98Zm-99.47,24.03c-.71,.24-1.19,.24-1.67-.24,0-.48,.48-.71,1.19-.95,.71,.24,.95,.71,.48,1.19Zm45.69-15.94c-15.23,4.76-23.32,7.14-24.27,7.14-.48-.71,.24-2.86,2.14-6.42l3.09-5.47,17.61-1.43c7.85-.71,16.9-1.43,19.99-1.67,3.09-.24,4.28-.24,4.28,0,0,.71-7.61,3.33-22.84,7.85Z" style="fill:#fe3289;"/></g><g><path d="M494.58,655.1h-16.63l-2.34,6.14h-8.03l6.25-16.31-2.31-2.85h28.08l-5.01,13.01Zm-14.79-4.74h8.6l1.33-3.5h-8.6l-1.33,3.5Z" style="fill:#fff;"/><path d="M503.17,644.93l-2.31-2.85h28.08l-7.35,19.15h-24.67l6.25-16.31Zm7.29,1.93l-3.71,9.63h8.6l3.71-9.63h-8.6Z" style="fill:#fff;"/><path d="M532.55,644.93l-2.31-2.85h11.44l-5.54,14.41h5.28l5.54-14.41h8.03l-5.54,14.41h5.31l5.54-14.41h8.03l-7.35,19.15h-34.69l6.25-16.31Z" style="fill:#fff;"/><path d="M578.32,649.29h15.36l-1.84,4.74h-15.36l-.95,2.46h15.36l-1.81,4.74h-23.39l6.25-16.31-2.31-2.85h26.8l-1.84,4.77h-15.36l-.92,2.43Z" style="fill:#fff;"/><path d="M621.01,654.59h-2.85l1.84,6.64h-8.06l-1.96-6.64h-5.6l-2.55,6.64h-8.03l6.25-16.31-2.31-2.85h28.08l-4.8,12.51Zm-14.82-4.74h8.6l1.16-2.99h-8.6l-1.16,2.99Z" style="fill:#fff;"/><path d="M635.78,649.29h15.36l-1.84,4.74h-15.36l-.95,2.46h15.36l-1.81,4.74h-23.39l6.25-16.31-2.31-2.85h26.8l-1.84,4.77h-15.36l-.92,2.43Z" style="fill:#fff;"/><path d="M657.51,644.93l-2.31-2.85h28.08l-5.13,13.37-9.61,5.78h-17.28l6.25-16.31Zm7.29,1.93l-3.71,9.63h4.33l5.63-3.56,2.34-6.08h-8.6Z" style="fill:#fff;"/><path d="M702.84,644.93l-2.31-2.85h28.08l-2.37,6.2-5.63,3.41h4.3l-3.68,9.55h-24.64l6.25-16.31Zm3.59,11.56h8.57l.95-2.46h-8.57l-.95,2.46Zm7-7.2l4.06-2.43h-7.35l-.92,2.43h4.21Z" style="fill:#fff;"/><path d="M755.61,648.28l-10.85,6.58-2.46,6.37h-8.03l2.46-6.37-5.78-6.58,1.27-3.35-2.31-2.85h11.44l-1.42,3.68,2.96,3.53,5.63-3.53,1.42-3.68h8.03l-2.37,6.2Z" style="fill:#fff;"/><path d="M783.92,649.29h15.36l-1.84,4.74h-15.36l-2.76,7.2h-8.03l6.25-16.31-2.31-2.85h26.8l-1.84,4.77h-15.36l-.92,2.43Z" style="fill:#fff;"/><path d="M809.24,656.49h15.36l-1.81,4.74h-23.39l6.25-16.31-2.31-2.85h11.44l-5.54,14.41Z" style="fill:#fff;"/><path d="M830.4,642.08h11.44l-5.54,14.41h8.6l5.54-14.41h8.03l-7.35,19.15h-24.67l6.25-16.31-2.31-2.85Z" style="fill:#fff;"/><path d="M872.44,661.23l1.42-3.74-2.91-3.5-5.69,3.56-1.42,3.68h-8.03l2.34-6.14,5.66-3.44-2.96-3.44,1.25-3.29-2.31-2.85h11.44l-1.42,3.68,2.91,3.56,5.69-3.5,1.42-3.74h8.03l-2.37,6.2-5.63,3.41,2.99,3.35-2.37,6.2h-8.03Z" style="fill:#fff;"/></g></svg>